<?xml version="1.0" encoding="UTF-8" standalone="no"?>
<!-- Created with Inkscape (http://www.inkscape.org/) -->

<svg
   xmlns:dc="http://purl.org/dc/elements/1.1/"
   xmlns:cc="http://creativecommons.org/ns#"
   xmlns:rdf="http://www.w3.org/1999/02/22-rdf-syntax-ns#"
   xmlns:svg="http://www.w3.org/2000/svg"
   xmlns="http://www.w3.org/2000/svg"
   xmlns:sodipodi="http://sodipodi.sourceforge.net/DTD/sodipodi-0.dtd"
   xmlns:inkscape="http://www.inkscape.org/namespaces/inkscape"
   width="112.88889mm"
   height="51.954231mm"
   viewBox="0 0 400.00002 184.08979"
   id="svg2"
   version="1.1"
   inkscape:version="0.91 r13725"
   sodipodi:docname="A&amp;W_Logo.svg">
  <defs
     id="defs4" />
  <sodipodi:namedview
     id="base"
     pagecolor="#ffffff"
     bordercolor="#666666"
     borderopacity="1.0"
     inkscape:pageopacity="0.0"
     inkscape:pageshadow="2"
     inkscape:zoom="0.35"
     inkscape:cx="43.853988"
     inkscape:cy="139.41471"
     inkscape:document-units="px"
     inkscape:current-layer="layer1"
     showgrid="false"
     fit-margin-top="0"
     fit-margin-left="0"
     fit-margin-right="0"
     fit-margin-bottom="0"
     inkscape:window-width="1366"
     inkscape:window-height="705"
     inkscape:window-x="-8"
     inkscape:window-y="-8"
     inkscape:window-maximized="1" />
  <metadata
     id="metadata7">
    <rdf:RDF>
      <cc:Work
         rdf:about="">
        <dc:format>image/svg+xml</dc:format>
        <dc:type
           rdf:resource="http://purl.org/dc/dcmitype/StillImage" />
        <dc:title></dc:title>
      </cc:Work>
    </rdf:RDF>
  </metadata>
  <g
     inkscape:label="Layer 1"
     inkscape:groupmode="layer"
     id="layer1"
     transform="translate(105.99684,-487.68712)">
    <g
       style="overflow:visible"
       id="g3365"
       transform="matrix(0.52990603,0,0,0.52990603,-105.99669,487.69015)">
      <g
         id="g3337">
        <g
           id="g3339">
          <g
             id="g3341">
            <path
               id="path3343"
               d="M 238.365,12.705 C 177.427,20.068 120.103,36.533 68.58,66.885 33.6,89.814 3.912,125.771 4.283,170.83 c -2.441,45.059 24.824,82.734 60.195,106.172 121.895,71.016 279.141,73.066 425.41,60 l 15.273,-1.289 c 0,0 224.063,-16.387 243.945,-141.113 C 757.29,144.444 733.813,101.065 694.692,74.229 668.266,56.397 647.973,48.331 647.973,48.331 526.508,1.476 387.973,-2.802 253.891,11.085 l -15.526,1.62"
               inkscape:connector-curvature="0"
               style="fill:#ffffff" />
            <path
               id="path3345"
               d="M 238.365,12.705 C 177.427,20.068 120.103,36.533 68.58,66.885 33.6,89.814 3.912,125.771 4.283,170.83 c -2.441,45.059 24.824,82.734 60.195,106.172 121.895,71.016 279.141,73.066 425.41,60 l 15.273,-1.289 c 0,0 224.063,-16.387 243.945,-141.113 C 757.29,144.444 733.813,101.065 694.692,74.229 668.266,56.397 647.973,48.331 647.973,48.331 526.508,1.476 387.973,-2.802 253.891,11.085 l -15.526,1.62 z"
               inkscape:connector-curvature="0"
               style="fill:none;stroke:#49210b;stroke-width:8.26239967" />
          </g>
          <path
             id="path3347"
             d="m 610.963,131.689 40.469,-52.285 -76.523,0 c -4.551,3.691 -2.949,9.531 -1.953,15.723 C 527.858,64.404 457.175,44.443 377.819,44.443 c -39.629,0 -77.09,4.922 -110.176,13.75 l -6.816,-28.262 c 126.563,-12.148 257.168,-8.418 371.797,33.008 0,0 19.141,7.188 44.102,22.988 36.914,23.652 59.004,62.051 51.367,106.582 -18.828,110.254 -230.215,124.727 -230.215,124.727 l -6.758,-27.461 c 79.16,-21.66 133.281,-65.156 133.281,-115.449 -10e-4,-14.961 -4.59,-29.277 -13.438,-42.637"
             inkscape:connector-curvature="0"
             style="fill:#8e4f1a" />
          <path
             id="path3349"
             d="m 267.643,212.041 -48.906,0 c -9.668,16.484 -36.484,30.664 -25.02,51.719 l -57.441,0 c 47.91,-50.586 92.031,-107.734 134.902,-162.148 4.941,-7.656 -9.199,-8.262 -1.836,-13.203 l 67.051,0 -9.219,85.605 c -9.648,4.629 -20.703,11.582 -25.645,22.324 -2.324,6.543 -3.457,16.836 1.113,22.988 3.828,6.836 11.523,10.293 18.438,12.617 -1.563,11.465 1.152,22.969 8.008,31.816 l -86.25,0 c 3.477,-9.648 19.141,-10.332 21.094,-22.539 l 3.711,-29.179"
             inkscape:connector-curvature="0"
             style="fill:#49210b" />
          <path
             id="path3351"
             d="m 245.494,181.396 c 7.715,-11.973 19.219,-24.98 28.379,-37.578 l -3.398,37.578 -24.981,0"
             inkscape:connector-curvature="0"
             style="fill:#ffffff" />
          <path
             id="path3353"
             d="m 491.275,270.713 c -13.828,-2.363 -31.367,-12.363 -34.102,-24.941 -2.891,-12.539 5.313,-46.035 7.988,-69.004 l -70.527,92.051 c -13.828,-1.211 -29.98,-11.875 -34.102,-21.914 -4.16,-10.078 -2.48,-12.793 -1.426,-19.277 11.797,-4.688 36.953,-17.617 26.309,-41.23 21.445,-6.289 9.297,-28.652 0.801,-25.43 5.801,-4.023 2.051,-18.73 -13.047,-19.648 0.313,-1.934 6.66,-24.434 6.367,-31.973 -0.313,-8.984 -7.773,-14.355 -3.496,-20.938 l 60.762,0 c -7.285,36.445 -14.18,72.988 -21.035,109.824 21.426,-24.219 41.406,-54.863 60.527,-82.813 7.051,-11.797 1.914,-20.137 0,-27.012 l 63.672,0 c -21.836,31.836 -18.457,74.551 -27.695,111.328 23.828,-26.445 47.285,-58.652 67.91,-88.887 5.762,-6.934 -3.027,-17.5 3.125,-22.441 l 48.262,0 -140.293,182.305"
             inkscape:connector-curvature="0"
             style="fill:#49210b" />
          <path
             id="path3355"
             d="m 390.162,170.771 c -5.996,-10.625 -21.953,1.719 -17.52,5.117 1.934,1.387 2.324,0.977 3.945,-0.215 2.344,-1.66 3.125,-4.98 3.125,-4.98 7.676,-3.242 11.016,3.262 2.871,7.754 -4.551,2.52 -8.691,2.188 -12.578,1.797 -12.793,-1.426 -18.75,0.977 -26.934,7.266 -4.551,4.023 -8.633,10.762 -5.215,15.293 3.301,4.492 10.332,3.301 15.273,2.52 5.859,-2.695 8.184,-7.773 5.586,-10.547 -2.48,-2.871 -12.285,-2.617 -17.188,0.41 -0.078,-4.746 4.238,-7.383 9.063,-8.789 5.938,-1.152 15.488,-1.484 19.219,5.566 2.227,8.184 -5.762,15.078 -10.82,17.852 -6.23,2.988 -15.176,5.234 -22.266,1.855 -5.645,-1.855 -9.668,-8.867 -7.813,-14.492 3.516,-13.184 18.477,-25.469 33.281,-21.055 0,0 -8.613,-2.754 -9.434,-7.91 -1.035,-8.633 4.375,-10.781 9.219,-13.789 4.102,-0.762 11.191,-2.969 14.141,1.855 1.465,3.301 -1.816,3.574 -1.816,3.574 -3.008,-3.535 -6.758,-2.109 -9.102,-1.152 -4.629,1.914 -6.484,6.25 -3.223,8.359 2.324,1.563 7.09,1.543 7.09,1.543 28.027,-10.156 -2.871,-36.914 -25.996,-9.688 -3.75,4.727 -3.75,11.855 -3.398,17.051 -26.27,7.988 -41.68,30.547 -25.293,43.535 13.398,8.555 33.086,5.977 46.465,0 8.965,-4.805 18.984,-13.398 19.746,-24.141 -0.098,-0.137 -0.137,-0.176 -0.176,-0.215 0,-5.313 -2.832,-8.809 -5.059,-10.801 l -0.605,-0.762 c 9.572,1.897 19.123,-6.072 15.412,-12.811"
             inkscape:connector-curvature="0"
             style="fill:#d27b40" />
          <path
             id="path3357"
             d="m 201.861,265.361 c 0.605,2.5 1.621,5.098 3.066,7.734 l -91.757,0 c 13.809,-14.512 27.266,-29.395 40.586,-44.707 -14.395,-16.484 -22.52,-34.668 -22.52,-54.063 0,-47.852 49.297,-89.746 122.656,-112.344 l -7.715,-30.547 c -57.5,6.543 -111.582,21.113 -160.254,47.969 -32.949,20.254 -60.918,52.109 -60.586,91.973 -2.227,39.902 23.418,73.203 56.797,93.984 114.98,62.754 263.359,64.629 401.367,53.086 l -5.117,-25.449 c -30.723,7.246 -64.746,11.23 -100.566,11.23 -68.964,0.002 -131.191,-14.92 -175.957,-38.866"
             inkscape:connector-curvature="0"
             style="fill:#d27b40" />
        </g>
      </g>
    </g>
  </g>
</svg>
